<svg width="48" height="47" viewBox="0 0 48 47" fill="none" xmlns="http://www.w3.org/2000/svg">
<mask id="mask0_23_11327" style="mask-type:luminance" maskUnits="userSpaceOnUse" x="0" y="0" width="48" height="47">
<path fill-rule="evenodd" clip-rule="evenodd" d="M0.329102 0.213867H47.1011V46.6421H0.329102V0.213867Z" fill="white"/>
</mask>
<g mask="url(#mask0_23_11327)">
<path d="M43.9206 35.012C43.4685 35.8029 42.9696 36.5627 42.4083 37.2916C38.1676 42.9827 31.3389 46.6424 23.7151 46.6424C16.0913 46.6424 9.26255 42.9827 5.02189 37.2916C4.46063 36.5627 3.96173 35.8029 3.5096 35.012C1.45163 31.5694 0.329102 27.6616 0.329102 23.3816C0.329102 10.6347 10.806 0.213867 23.7151 0.213867C36.6242 0.213867 47.1011 10.6347 47.1011 23.3816C47.1011 27.6616 45.9786 31.5694 43.9206 35.012Z" fill="#FF9E00"/>
</g>
<path d="M42.4089 37.292C38.1682 42.9831 31.3395 46.6428 23.7157 46.6428C16.0918 46.6428 9.26312 42.9831 5.02246 37.292C9.2943 31.6784 16.0762 28.0342 23.7157 28.0342C31.3551 28.0342 38.137 31.6784 42.4089 37.292Z" fill="#FFD899"/>
<path fill-rule="evenodd" clip-rule="evenodd" d="M23.5443 10.5322C25.1272 10.5322 26.4103 11.8154 26.4103 13.3982V20.5631H33.5752C35.158 20.5631 36.4412 21.8463 36.4412 23.4291C36.4412 25.0119 35.158 26.2951 33.5752 26.2951H26.4103V33.46C26.4103 35.0428 25.1272 36.326 23.5443 36.326C21.9615 36.326 20.6784 35.0428 20.6784 33.46V26.2951H13.5134C11.9306 26.2951 10.6475 25.0119 10.6475 23.4291C10.6475 21.8463 11.9306 20.5631 13.5134 20.5631H20.6784V13.3982C20.6784 11.8154 21.9615 10.5322 23.5443 10.5322Z" fill="white"/>
</svg>
